<?xml version="1.0" encoding="UTF-8"?>
<svg id="svg2" xmlns="http://www.w3.org/2000/svg" xmlns:xlink="http://www.w3.org/1999/xlink" viewBox="0 0 183 40">
  <defs>
    <style>
      .cls-1 {
        fill: url(#linear-gradient-2);
      }

      .cls-2 {
        fill: #fff;
      }

      .cls-3 {
        fill: #c8daea;
      }

      .cls-4 {
        fill: #a9c9dd;
      }

      .cls-5 {
        fill: url(#linear-gradient);
      }
    </style>
    <linearGradient id="linear-gradient" x1="0" y1="20" x2="183" y2="20" gradientUnits="userSpaceOnUse">
      <stop offset="0" stop-color="#37aee2"/>
      <stop offset="1" stop-color="#1e96c8"/>
    </linearGradient>
    <linearGradient id="linear-gradient-2" x1="1052.17" y1="-55.67" x2="1052.58" y2="-55" gradientTransform="translate(-10934.65 600.99) scale(10.42)" gradientUnits="userSpaceOnUse">
      <stop offset="0" stop-color="#eff7fc"/>
      <stop offset="1" stop-color="#fff"/>
    </linearGradient>
  </defs>
  <path class="cls-5" d="m0,6C0,2.69,2.69,0,6,0h171c3.31,0,6,2.69,6,6v28c0,3.31-2.69,6-6,6H6c-3.31,0-6-2.69-6-6V6Z"/>
  <path id="path2993" class="cls-3" d="m20.07,29.98c-.67,0-.55-.26-.8-.9l-1.97-6.5,12.24-7.64,1.44.38-1.19,3.25-9.72,11.41Z"/>
  <path id="path2989" class="cls-4" d="m20.07,29.98c.52,0,.74-.24,1.04-.52.45-.43,6.23-6.05,6.23-6.05l-3.54-.86-3.29,2.08-.43,5.19v.17Z"/>
  <path id="path2991" class="cls-1" d="m20.41,24.69l8.37,6.17c.95.52,1.64.26,1.88-.88l3.41-16.05c.35-1.4-.54-2.02-1.45-1.61l-19.99,7.71c-1.37.55-1.35,1.31-.24,1.64l5.14,1.61,11.88-7.49c.55-.35,1.07-.16.66.22l-9.65,8.66Z"/>
  <g>
    <path class="cls-2" d="m63.56,14.83v2.25h-3.02v8.25h-2.89v-8.25h-3.02v-2.25h8.92Z"/>
    <path class="cls-2" d="m69.11,19.9c-.15-.04-.34-.08-.6-.08-1.21,0-1.92.75-1.92,2.06v3.45h-2.68v-7.77h2.5l.15,1.15c.39-.84,1.09-1.31,1.92-1.31.23,0,.45.03.63.08v2.42Z"/>
    <path class="cls-2" d="m77.72,17.56l-3.99,10.47h-2.76l1.31-3.03-2.9-7.44h2.81l1.38,4.54,1.33-4.54h2.82Z"/>
    <path class="cls-2" d="m81.2,15.37c0-.79.65-1.41,1.49-1.41s1.48.62,1.48,1.41c0,.84-.65,1.44-1.48,1.44s-1.49-.6-1.49-1.44Zm.14,9.96v-7.77h2.69v7.77h-2.69Z"/>
    <path class="cls-2" d="m92.93,20.23v5.1h-2.68v-4.4c0-.96-.36-1.41-1.06-1.41-.77,0-1.17.55-1.17,1.69v4.11h-2.69v-7.77h2.5l.15,1.14c.56-.87,1.35-1.32,2.4-1.32,1.63,0,2.55,1.04,2.55,2.85Z"/>
    <path class="cls-2" d="m105.65,14.83v2.25h-3.02v8.25h-2.89v-8.25h-3.02v-2.25h8.92Z"/>
    <path class="cls-2" d="m112.77,21.99h-5.33c0,.99.54,1.6,1.46,1.6.57,0,1-.25,1.2-.75h2.62c-.3,1.59-1.92,2.66-3.88,2.66-2.49,0-4.09-1.64-4.09-4.06s1.54-4.06,4.05-4.06,3.98,1.59,3.98,4.15v.46Zm-2.64-1.5c-.1-.8-.57-1.26-1.31-1.26s-1.26.48-1.35,1.26h2.65Z"/>
    <path class="cls-2" d="m113.82,25.32v-10.65h2.68v10.65h-2.68Z"/>
    <path class="cls-2" d="m125.57,21.99h-5.33c0,.99.54,1.6,1.46,1.6.57,0,1-.25,1.2-.75h2.62c-.3,1.59-1.92,2.66-3.88,2.66-2.49,0-4.09-1.64-4.09-4.06s1.54-4.06,4.05-4.06,3.98,1.59,3.98,4.15v.46Zm-2.64-1.5c-.1-.8-.57-1.26-1.31-1.26s-1.26.48-1.35,1.26h2.65Z"/>
    <path class="cls-2" d="m131.79,24.71v-1.06c-.39.73-1.16,1.23-2.25,1.23-1.92,0-3.21-1.5-3.21-3.75s1.26-3.75,3.19-3.75c1.04,0,1.9.45,2.29,1.23l.13-1.05h2.52v7.03c0,2.34-1.56,3.61-4.12,3.61-2.16,0-3.69-1.12-3.81-2.79h2.58c.15.58.58.89,1.29.89.9,0,1.38-.51,1.38-1.59Zm-1.35-5.42c-.85,0-1.42.72-1.42,1.86s.57,1.86,1.42,1.86,1.46-.73,1.46-1.86-.57-1.86-1.46-1.86Z"/>
    <path class="cls-2" d="m140.93,19.9c-.15-.04-.34-.08-.6-.08-1.21,0-1.92.75-1.92,2.06v3.45h-2.68v-7.77h2.5l.15,1.15c.39-.84,1.09-1.31,1.92-1.31.23,0,.45.03.63.08v2.42Z"/>
    <path class="cls-2" d="m148.83,20.38v4.95h-2.42l-.15-.96c-.45.75-1.21,1.12-2.32,1.12-1.71,0-2.73-.88-2.73-2.34,0-1.77,1.52-2.54,4.95-2.54v-.13c0-.85-.33-1.25-1.05-1.25-.63,0-1.05.31-1.09.85h-2.51c.09-1.68,1.53-2.71,3.83-2.71s3.49,1.04,3.49,3Zm-2.65,1.69c-1.59,0-2.31.3-2.31.9,0,.45.38.75,1,.75.83,0,1.31-.45,1.31-1.19v-.46Z"/>
    <path class="cls-2" d="m152.58,17.56l.15,1.14c.48-.84,1.3-1.32,2.34-1.32s1.77.5,2.11,1.36c.53-.88,1.4-1.36,2.49-1.36,1.57,0,2.55,1.1,2.55,2.85v5.1h-2.64v-4.67c0-.72-.36-1.14-.99-1.14-.72,0-1.09.54-1.09,1.5v4.3h-2.64v-4.67c0-.73-.36-1.14-1-1.14-.71,0-1.1.55-1.1,1.54v4.26h-2.64v-7.77h2.46Z"/>
  </g>
</svg>